Coordinates
version=1
nRows=12
nColumns=23
inDegrees=yes

Units are S.I. units (second, meters, Newtons, ...)
If the header above contains a line with 'inDegrees', this indicates whether rotational values are in degrees (yes) or radians (no).

endheader
time	pelvis_tilt	pelvis_list	pelvis_rotation	pelvis_tx	pelvis_ty	pelvis_tz	hip_flexion_r	hip_adduction_r	hip_rotation_r	knee_angle_r	knee_angle_r_beta	ankle_angle_r	subtalar_angle_r	mtp_angle_r	hip_flexion_l	hip_adduction_l	hip_rotation_l	knee_angle_l	knee_angle_l_beta	ankle_angle_l	subtalar_angle_l	mtp_angle_l
     22.50000000	     -0.10588228	     -1.39274325	      7.18968026	      2.23469049	      0.99845938	      0.97968684	     30.49237809	     -5.14437564	     -8.77283541	     60.40645082	      1.05429146	      4.73795663	    -12.41128614	      0.00000000	    -15.40033979	     -5.20144898	     -8.73397309	     21.20559848	      0.37010751	     -3.94823492	      3.42912773	      0.00000000
     22.50666667	     -0.13110173	     -1.78968587	      6.99232954	      2.23711596	      1.00154159	      0.98018434	     29.67404572	     -4.85218561	    -10.00590523	     56.30766445	      0.98275414	      5.05040890	    -10.87687254	      0.00000000	    -16.09987705	     -5.66290939	     -8.53044575	     21.49215241	      0.37510882	     -5.12220188	      2.04174753	      0.00000000
     22.51333333	     -1.02116534	     -1.62949962	      6.34313142	      2.23895563	      1.00283518	      0.98143788	     30.00341405	     -4.88201514	    -10.43171646	     52.59032189	      0.91787427	      5.09963211	     -9.48913155	      0.00000000	    -15.66550775	     -5.45089630	     -8.91078258	     22.46034051	      0.39200689	     -5.66731584	      1.28228230	      0.00000000
     22.52000000	     -1.06408006	     -1.76923519	      6.19259819	      2.24101419	      1.00487917	      0.98190452	     29.10150240	     -4.89712120	    -11.91139696	     48.63985952	      0.84892570	      5.34954452	     -7.31728399	      0.00000000	    -15.98627555	     -5.66601051	     -8.55156456	     23.58812414	      0.41169043	     -5.97964936	     -0.06802654	      0.00000000
     22.52666667	     -1.34050947	     -1.73859013	      5.76849662	      2.24268802	      1.00601094	      0.98287355	     28.54407401	     -4.85428128	    -12.98254172	     44.88833470	      0.78344924	      5.43889747	     -5.30531997	      0.00000000	    -15.87404196	     -5.66975953	     -8.53405500	     25.22446303	      0.44024993	     -5.96806705	     -1.29825511	      0.00000000
     22.53333333	     -1.81126714	     -1.57791510	      5.13251800	      2.24401491	      1.00628739	      0.98431804	     28.28756847	     -4.72575000	    -13.64082057	     41.36196310	      0.72190244	      5.41274180	     -3.50355418	      0.00000000	    -15.37405435	     -5.50321175	     -8.68013541	     27.32290116	      0.47687459	     -5.69196850	     -2.57900896	      0.00000000
     22.54000000	     -2.11364096	     -1.42220141	      4.49776006	      2.24524020	      1.00623760	      0.98578649	     27.82535647	     -4.54176860	    -14.34792080	     37.98415334	      0.66294854	      5.33057025	     -1.68872711	      0.00000000	    -14.93347743	     -5.34945726	     -8.78341617	     29.67198640	      0.51787386	     -5.21944351	     -3.97944196	      0.00000000
     22.54666667	     -1.42549696	     -1.71034668	      4.42893634	      2.24680533	      1.00711006	      0.98646936	     25.99355114	     -4.19159463	    -16.26692776	     34.50937670	      0.60230225	      5.35051563	      0.87430273	      0.00000000	    -15.41559459	     -5.77948793	     -8.25083188	     32.10664538	      0.56036667	     -4.98029462	     -5.59105560	      0.00000000
     22.55333333	     -1.53041948	     -1.69091092	      3.87561562	      2.24772234	      1.00625500	      0.98800242	     25.32724194	     -3.74986063	    -16.87582996	     31.55505137	      0.55073954	      5.14071285	      2.28442405	      0.00000000	    -14.85087546	     -5.79616463	     -8.22358958	     35.08209042	      0.61229799	     -4.49408939	     -7.06201554	      0.00000000
     22.56000000	     -1.06496952	     -1.86869039	      3.44755584	      2.24867628	      1.00563422	      0.98939527	     23.96619674	     -3.09500090	    -17.65654278	     28.72633430	      0.50136912	      4.83970344	      3.72439481	      0.00000000	    -14.82687396	     -6.01623647	     -7.99853282	     38.12522725	      0.66541074	     -4.08226830	     -8.68219994	      0.00000000
     22.56666667	     -0.79865184	     -1.99954270	      2.96245428	      2.24934799	      1.00420880	      0.99086968	     22.92985389	     -2.42555366	    -18.02964530	     26.31454195	      0.45927540	      4.46253806	      4.60112681	      0.00000000	    -14.42987788	     -6.15195273	     -7.79638493	     41.44757194	      0.72339660	     -3.68632654	    -10.29534836	      0.00000000
     22.57333333	     -0.67638472	     -2.11306720	      2.46439510	      2.24982430	      1.00203766	      0.99233913	     22.15326657	     -1.79970864	    -18.20525592	     24.38098516	      0.42552847	      4.06997380	      5.17484891	      0.00000000	    -13.74313364	     -6.24818392	     -7.58632140	     44.99016607	      0.78522653	     -3.34890722	    -11.91728753	      0.00000000
